<svg width="98" height="98" viewBox="0 0 98 98" fill="none" xmlns="http://www.w3.org/2000/svg">
<path opacity="0.22" d="M49 98C76.062 98 98 76.062 98 49C98 21.9381 76.062 0 49 0C21.9381 0 0 21.9381 0 49C0 76.062 21.9381 98 49 98Z" fill="black"/>
<path d="M17 74.4027C19.5066 63.8561 25.8762 55.1368 34.2594 50.3618C30.2461 46.375 27.9877 40.9214 27.9947 35.2346C27.9947 23.5075 37.3988 14 48.9983 14C60.5978 14 70.0018 23.5075 70.0018 35.2346C70.0088 40.9214 67.7504 46.375 63.7371 50.3618C72.1203 55.1368 78.4899 63.8561 81 74.4027C73.246 84.2672 61.4612 90.0106 48.9983 90C36.5388 90.0106 24.754 84.2672 17 74.4027Z" fill="white"/>
</svg>
