<?xml version="1.0" encoding="UTF-8"?>
<!DOCTYPE svg PUBLIC "-//W3C//DTD SVG 1.1//EN" "http://www.w3.org/Graphics/SVG/1.1/DTD/svg11.dtd">
<svg xmlns="http://www.w3.org/2000/svg" version="1.1" width="589px" height="588px" style="shape-rendering:geometricPrecision; text-rendering:geometricPrecision; image-rendering:optimizeQuality; fill-rule:evenodd; clip-rule:evenodd" xmlns:xlink="http://www.w3.org/1999/xlink">
<g><path style="opacity:1" fill="#ddd" d="M 293.5,96.5 C 322.998,123.163 352.665,149.663 382.5,176C 387.816,178.994 393.482,180.994 399.5,182C 415.833,182.333 432.167,182.667 448.5,183C 462.221,186.592 467.721,195.426 465,209.5C 462.737,216.097 458.237,220.264 451.5,222C 422.167,222.667 392.833,222.667 363.5,222C 359.385,220.777 355.718,218.777 352.5,216C 333.208,198.362 313.541,181.195 293.5,164.5C 273.315,182.52 252.982,200.353 232.5,218C 229.618,219.608 226.618,220.941 223.5,222C 194.5,222.667 165.5,222.667 136.5,222C 122.026,215.918 118.193,205.752 125,191.5C 128.56,186.471 133.393,183.638 139.5,183C 155.5,182.667 171.5,182.333 187.5,182C 192.352,181.287 197.019,179.954 201.5,178C 232.803,151.521 263.47,124.354 293.5,96.5 Z"/></g>
<g><path style="opacity:1" fill="#ddd" d="M 170.5,249.5 C 191.169,249.333 211.836,249.5 232.5,250C 254,255.5 267.5,269 273,290.5C 273.033,333.532 273.699,376.532 275,419.5C 282.031,434.066 292.864,437.899 307.5,431C 313.094,427.311 316.261,422.144 317,415.5C 317.333,374.167 317.667,332.833 318,291.5C 323.516,267.65 338.35,253.816 362.5,250C 379.5,249.333 396.5,249.333 413.5,250C 440.239,254.739 455.406,270.573 459,297.5C 459.5,355.832 459.667,414.166 459.5,472.5C 444.5,472.5 429.5,472.5 414.5,472.5C 414.667,420.166 414.5,367.832 414,315.5C 409.495,301.705 399.995,296.205 385.5,299C 376.693,301.14 371.193,306.64 369,315.5C 368.667,353.167 368.333,390.833 368,428.5C 364.065,453.101 349.899,467.935 325.5,473C 306.833,473.667 288.167,473.667 269.5,473C 247,467.833 233.167,454 228,431.5C 227.977,391.787 227.31,352.12 226,312.5C 219.322,299.702 208.822,295.202 194.5,299C 186.261,301.573 181.095,307.073 179,315.5C 178.5,367.832 178.333,420.166 178.5,472.5C 161.833,472.5 145.167,472.5 128.5,472.5C 128.333,412.499 128.5,352.499 129,292.5C 133.902,269.433 147.735,255.1 170.5,249.5 Z"/></g>
</svg>
